<?xml version="1.0" encoding="iso-8859-1"?>
<!-- Generator: Adobe Illustrator 19.0.0, SVG Export Plug-In . SVG Version: 6.00 Build 0)  -->
<svg version="1.1" id="Layer_1" xmlns="http://www.w3.org/2000/svg" xmlns:xlink="http://www.w3.org/1999/xlink" x="0px" y="0px"
	 viewBox="0 0 512 512" style="enable-background:new 0 0 512 512;" xml:space="preserve">
<g transform="translate(1 1)">
	<path style="fill:#FFFFFF;" d="M470.893,498.2H39.107c-17.067,0-31.573-14.507-31.573-31.573v-309.76h494.933v309.76
		C502.467,483.693,487.96,498.2,470.893,498.2L470.893,498.2z"/>
	<g>
		<path style="fill:#0096E6;" d="M470.893,506.733H39.107C16.92,506.733-1,488.813-1,466.627V148.333h512v318.293
			C511,488.813,493.08,506.733,470.893,506.733z M16.067,165.4v301.227c0,12.8,10.24,23.04,23.04,23.04H470.04
			c12.8,0,23.04-10.24,23.04-23.04V165.4H16.067z"/>
		<path style="fill:#0096E6;" d="M502.467,165.4H7.533V28.867h179.2c5.12,0,8.533,3.413,8.533,8.533s-3.413,8.533-8.533,8.533H24.6
			v102.4h460.8v-102.4H323.267c-5.12,0-8.533-3.413-8.533-8.533s3.413-8.533,8.533-8.533h179.2V165.4z"/>
		<path style="fill:#0096E6;" d="M255,387.267c-61.44,0-110.933-49.493-110.933-110.933v-51.2c0-5.12,3.413-8.533,8.533-8.533
			c5.12,0,8.533,3.413,8.533,8.533v51.2c0,52.053,41.813,93.867,93.867,93.867s93.867-41.813,93.867-93.867v-51.2
			c0-5.12,3.413-8.533,8.533-8.533s8.533,3.413,8.533,8.533v51.2C365.933,337.773,316.44,387.267,255,387.267z"/>
		<path style="fill:#0096E6;" d="M178.2,233.667c-5.12,0-8.533-3.413-8.533-8.533c0-9.387-7.68-17.067-17.067-17.067
			s-17.067,7.68-17.067,17.067c0,5.12-3.413,8.533-8.533,8.533s-8.533-3.413-8.533-8.533c0-18.773,15.36-34.133,34.133-34.133
			s34.133,15.36,34.133,34.133C186.733,230.253,183.32,233.667,178.2,233.667z"/>
		<path style="fill:#0096E6;" d="M383,233.667c-5.12,0-8.533-3.413-8.533-8.533c0-9.387-7.68-17.067-17.067-17.067
			s-17.067,7.68-17.067,17.067c0,5.12-3.413,8.533-8.533,8.533s-8.533-3.413-8.533-8.533c0-18.773,15.36-34.133,34.133-34.133
			s34.133,15.36,34.133,34.133C391.533,230.253,388.12,233.667,383,233.667z"/>
		<path style="fill:#0096E6;" d="M84.333,97.133c-2.56,0-4.267-0.853-5.973-2.56l-51.2-51.2c-3.413-3.413-3.413-8.533,0-11.947
			s8.533-3.413,11.947,0l51.2,51.2c3.413,3.413,3.413,8.533,0,11.947C88.6,96.28,86.893,97.133,84.333,97.133z"/>
		<path style="fill:#0096E6;" d="M33.133,165.4c-1.707,0-3.413-0.853-5.12-1.707c-3.413-2.56-4.267-8.533-1.707-11.947l51.2-68.267
			c2.56-3.413,8.533-4.267,11.947-1.707c3.413,2.56,4.267,8.533,1.707,11.947l-51.2,68.267
			C38.253,164.547,35.693,165.4,33.133,165.4z"/>
		<path style="fill:#0096E6;" d="M84.333,165.4c-5.12,0-8.533-3.413-8.533-8.533V88.6c0-5.12,3.413-8.533,8.533-8.533
			s8.533,3.413,8.533,8.533v68.267C92.867,161.987,89.453,165.4,84.333,165.4z"/>
		<path style="fill:#0096E6;" d="M425.667,97.133c-2.56,0-4.267-0.853-5.973-2.56c-3.413-3.413-3.413-8.533,0-11.947l51.2-51.2
			c3.413-3.413,8.533-3.413,11.947,0c3.413,3.413,3.413,8.533,0,11.947l-51.2,51.2C429.933,96.28,428.227,97.133,425.667,97.133z"/>
		<path style="fill:#0096E6;" d="M476.867,165.4c-2.56,0-5.12-0.853-6.827-3.413l-51.2-68.267c-2.56-3.413-1.707-9.387,1.707-11.947
			c3.413-2.56,9.387-1.707,11.947,1.707l51.2,68.267c2.56,3.413,1.707,9.387-1.707,11.947
			C480.28,164.547,478.573,165.4,476.867,165.4z"/>
		<path style="fill:#0096E6;" d="M425.667,165.4c-5.12,0-8.533-3.413-8.533-8.533V88.6c0-5.12,3.413-8.533,8.533-8.533
			S434.2,83.48,434.2,88.6v68.267C434.2,161.987,430.787,165.4,425.667,165.4z"/>
		<path style="fill:#0096E6;" d="M255,165.4c-5.12,0-8.533-3.413-8.533-8.533V11.8c0-5.12,3.413-8.533,8.533-8.533
			s8.533,3.413,8.533,8.533v145.067C263.533,161.987,260.12,165.4,255,165.4z"/>
		<path style="fill:#0096E6;" d="M195.267,80.067c-2.56,0-4.267-0.853-5.973-2.56c-3.413-3.413-3.413-8.533,0-11.947l59.733-59.733
			c3.413-3.413,8.533-3.413,11.947,0s3.413,8.533,0,11.947L201.24,77.507C199.533,79.213,197.827,80.067,195.267,80.067z"/>
		<path style="fill:#0096E6;" d="M314.733,80.067c-2.56,0-4.267-0.853-5.973-2.56l-59.733-59.733c-3.413-3.413-3.413-8.533,0-11.947
			s8.533-3.413,11.947,0l59.733,59.733c3.413,3.413,3.413,8.533,0,11.947C319,79.213,317.293,80.067,314.733,80.067z"/>
	</g>
</g>
<g>
</g>
<g>
</g>
<g>
</g>
<g>
</g>
<g>
</g>
<g>
</g>
<g>
</g>
<g>
</g>
<g>
</g>
<g>
</g>
<g>
</g>
<g>
</g>
<g>
</g>
<g>
</g>
<g>
</g>
</svg>
